<mxfile host="app.diagrams.net" modified="2024-04-19T10:51:37.450Z" agent="Mozilla/5.0 (Windows NT 10.0; Win64; x64) AppleWebKit/537.36 (KHTML, like Gecko) Chrome/123.0.0.0 Safari/537.36" etag="V21xUcT_G9pOJJhzZT3e" version="24.2.5" type="device">
  <diagram id="C5RBs43oDa-KdzZeNtuy" name="Page-1">
    <mxGraphModel dx="1544" dy="373" grid="1" gridSize="10" guides="1" tooltips="1" connect="1" arrows="1" fold="1" page="1" pageScale="1" pageWidth="827" pageHeight="1169" math="0" shadow="0">
      <root>
        <mxCell id="WIyWlLk6GJQsqaUBKTNV-0" />
        <mxCell id="WIyWlLk6GJQsqaUBKTNV-1" parent="WIyWlLk6GJQsqaUBKTNV-0" />
        <mxCell id="YowzJjaFA8yFRqKVJ1UK-1" style="edgeStyle=orthogonalEdgeStyle;rounded=0;orthogonalLoop=1;jettySize=auto;html=1;exitX=0.5;exitY=1;exitDx=0;exitDy=0;entryX=0.5;entryY=0;entryDx=0;entryDy=0;" parent="WIyWlLk6GJQsqaUBKTNV-1" source="YowzJjaFA8yFRqKVJ1UK-0" target="YowzJjaFA8yFRqKVJ1UK-6" edge="1">
          <mxGeometry relative="1" as="geometry">
            <mxPoint x="414" y="110" as="targetPoint" />
            <Array as="points">
              <mxPoint x="414" y="70" />
              <mxPoint x="415" y="70" />
            </Array>
          </mxGeometry>
        </mxCell>
        <mxCell id="YowzJjaFA8yFRqKVJ1UK-0" value="Start" style="ellipse;whiteSpace=wrap;html=1;" parent="WIyWlLk6GJQsqaUBKTNV-1" vertex="1">
          <mxGeometry x="354" y="20" width="120" height="50" as="geometry" />
        </mxCell>
        <mxCell id="YowzJjaFA8yFRqKVJ1UK-4" style="edgeStyle=orthogonalEdgeStyle;rounded=0;orthogonalLoop=1;jettySize=auto;html=1;exitX=0.5;exitY=1;exitDx=0;exitDy=0;" parent="WIyWlLk6GJQsqaUBKTNV-1" source="YowzJjaFA8yFRqKVJ1UK-3" target="YowzJjaFA8yFRqKVJ1UK-5" edge="1">
          <mxGeometry relative="1" as="geometry">
            <mxPoint x="406" y="290" as="targetPoint" />
          </mxGeometry>
        </mxCell>
        <mxCell id="YowzJjaFA8yFRqKVJ1UK-3" value="possiblecolors = [red,blue,green,yellow]" style="rounded=0;whiteSpace=wrap;html=1;" parent="WIyWlLk6GJQsqaUBKTNV-1" vertex="1">
          <mxGeometry x="302" y="170" width="224" height="60" as="geometry" />
        </mxCell>
        <mxCell id="YowzJjaFA8yFRqKVJ1UK-14" style="edgeStyle=orthogonalEdgeStyle;rounded=0;orthogonalLoop=1;jettySize=auto;html=1;exitX=0.5;exitY=1;exitDx=0;exitDy=0;entryX=0.5;entryY=0;entryDx=0;entryDy=0;" parent="WIyWlLk6GJQsqaUBKTNV-1" source="YowzJjaFA8yFRqKVJ1UK-5" target="YowzJjaFA8yFRqKVJ1UK-27" edge="1">
          <mxGeometry relative="1" as="geometry">
            <mxPoint x="413.5" y="330" as="targetPoint" />
          </mxGeometry>
        </mxCell>
        <mxCell id="YowzJjaFA8yFRqKVJ1UK-5" value="colours = [r.choice(possiblecolors) for x in range(4)]" style="rounded=0;whiteSpace=wrap;html=1;" parent="WIyWlLk6GJQsqaUBKTNV-1" vertex="1">
          <mxGeometry x="260" y="250" width="308" height="60" as="geometry" />
        </mxCell>
        <mxCell id="YowzJjaFA8yFRqKVJ1UK-7" style="edgeStyle=orthogonalEdgeStyle;rounded=0;orthogonalLoop=1;jettySize=auto;html=1;exitX=0.5;exitY=1;exitDx=0;exitDy=0;entryX=0.5;entryY=0;entryDx=0;entryDy=0;" parent="WIyWlLk6GJQsqaUBKTNV-1" source="YowzJjaFA8yFRqKVJ1UK-6" target="YowzJjaFA8yFRqKVJ1UK-3" edge="1">
          <mxGeometry relative="1" as="geometry" />
        </mxCell>
        <mxCell id="YowzJjaFA8yFRqKVJ1UK-6" value="import random as r" style="rounded=0;whiteSpace=wrap;html=1;" parent="WIyWlLk6GJQsqaUBKTNV-1" vertex="1">
          <mxGeometry x="354" y="90" width="120" height="60" as="geometry" />
        </mxCell>
        <mxCell id="ouDlS38kTs7-IsqNBu8T-18" style="edgeStyle=orthogonalEdgeStyle;rounded=0;orthogonalLoop=1;jettySize=auto;html=1;exitX=0.5;exitY=1;exitDx=0;exitDy=0;" parent="WIyWlLk6GJQsqaUBKTNV-1" source="YowzJjaFA8yFRqKVJ1UK-27" edge="1">
          <mxGeometry relative="1" as="geometry">
            <mxPoint x="414" y="380" as="targetPoint" />
          </mxGeometry>
        </mxCell>
        <mxCell id="G5skXLdHgKEqC8p22ND7-5" style="edgeStyle=orthogonalEdgeStyle;rounded=0;orthogonalLoop=1;jettySize=auto;html=1;exitX=0.5;exitY=1;exitDx=0;exitDy=0;" edge="1" parent="WIyWlLk6GJQsqaUBKTNV-1" source="YowzJjaFA8yFRqKVJ1UK-27" target="G5skXLdHgKEqC8p22ND7-4">
          <mxGeometry relative="1" as="geometry" />
        </mxCell>
        <mxCell id="YowzJjaFA8yFRqKVJ1UK-27" value="guess = [input(f&#39;input color {x+1]: &#39; for x in range(4)]" style="shape=trapezoid;perimeter=trapezoidPerimeter;whiteSpace=wrap;html=1;fixedSize=1;" parent="WIyWlLk6GJQsqaUBKTNV-1" vertex="1">
          <mxGeometry x="217" y="350" width="394" height="60" as="geometry" />
        </mxCell>
        <mxCell id="ouDlS38kTs7-IsqNBu8T-3" value="Actor" style="shape=umlActor;verticalLabelPosition=bottom;verticalAlign=top;html=1;outlineConnect=0;" parent="WIyWlLk6GJQsqaUBKTNV-1" vertex="1">
          <mxGeometry x="310" y="10" width="30" height="60" as="geometry" />
        </mxCell>
        <mxCell id="ouDlS38kTs7-IsqNBu8T-11" style="edgeStyle=orthogonalEdgeStyle;rounded=0;orthogonalLoop=1;jettySize=auto;html=1;exitX=0;exitY=1;exitDx=0;exitDy=0;entryX=0.5;entryY=0;entryDx=0;entryDy=0;" parent="WIyWlLk6GJQsqaUBKTNV-1" source="ouDlS38kTs7-IsqNBu8T-4" target="ouDlS38kTs7-IsqNBu8T-13" edge="1">
          <mxGeometry relative="1" as="geometry">
            <mxPoint x="132" y="760" as="targetPoint" />
          </mxGeometry>
        </mxCell>
        <mxCell id="ouDlS38kTs7-IsqNBu8T-12" value="False" style="edgeLabel;html=1;align=center;verticalAlign=middle;resizable=0;points=[];" parent="ouDlS38kTs7-IsqNBu8T-11" vertex="1" connectable="0">
          <mxGeometry x="0.0849" relative="1" as="geometry">
            <mxPoint as="offset" />
          </mxGeometry>
        </mxCell>
        <mxCell id="G5skXLdHgKEqC8p22ND7-15" style="edgeStyle=orthogonalEdgeStyle;rounded=0;orthogonalLoop=1;jettySize=auto;html=1;exitX=1;exitY=1;exitDx=0;exitDy=0;" edge="1" parent="WIyWlLk6GJQsqaUBKTNV-1" source="ouDlS38kTs7-IsqNBu8T-4" target="G5skXLdHgKEqC8p22ND7-10">
          <mxGeometry relative="1" as="geometry" />
        </mxCell>
        <mxCell id="G5skXLdHgKEqC8p22ND7-17" value="True" style="edgeLabel;html=1;align=center;verticalAlign=middle;resizable=0;points=[];" vertex="1" connectable="0" parent="G5skXLdHgKEqC8p22ND7-15">
          <mxGeometry x="-0.7326" y="2" relative="1" as="geometry">
            <mxPoint as="offset" />
          </mxGeometry>
        </mxCell>
        <mxCell id="ouDlS38kTs7-IsqNBu8T-4" value="if guess[i] == colours[i]" style="rhombus;whiteSpace=wrap;html=1;" parent="WIyWlLk6GJQsqaUBKTNV-1" vertex="1">
          <mxGeometry x="219" y="630" width="390" height="80" as="geometry" />
        </mxCell>
        <mxCell id="ouDlS38kTs7-IsqNBu8T-8" value="" style="endArrow=classic;html=1;rounded=0;" parent="WIyWlLk6GJQsqaUBKTNV-1" edge="1">
          <mxGeometry width="50" height="50" relative="1" as="geometry">
            <mxPoint x="790" y="510" as="sourcePoint" />
            <mxPoint x="414" y="510" as="targetPoint" />
          </mxGeometry>
        </mxCell>
        <mxCell id="G5skXLdHgKEqC8p22ND7-11" style="edgeStyle=orthogonalEdgeStyle;rounded=0;orthogonalLoop=1;jettySize=auto;html=1;exitX=1;exitY=1;exitDx=0;exitDy=0;entryX=0.5;entryY=0;entryDx=0;entryDy=0;" edge="1" parent="WIyWlLk6GJQsqaUBKTNV-1" source="ouDlS38kTs7-IsqNBu8T-13" target="G5skXLdHgKEqC8p22ND7-8">
          <mxGeometry relative="1" as="geometry">
            <Array as="points">
              <mxPoint x="290" y="830" />
              <mxPoint x="334" y="830" />
            </Array>
          </mxGeometry>
        </mxCell>
        <mxCell id="ouDlS38kTs7-IsqNBu8T-13" value="if guess[i] in colours" style="rhombus;whiteSpace=wrap;html=1;" parent="WIyWlLk6GJQsqaUBKTNV-1" vertex="1">
          <mxGeometry x="170" y="760" width="160" height="80" as="geometry" />
        </mxCell>
        <mxCell id="G5skXLdHgKEqC8p22ND7-3" style="edgeStyle=orthogonalEdgeStyle;rounded=0;orthogonalLoop=1;jettySize=auto;html=1;exitX=0.5;exitY=1;exitDx=0;exitDy=0;entryX=0.5;entryY=0;entryDx=0;entryDy=0;" edge="1" parent="WIyWlLk6GJQsqaUBKTNV-1" source="G5skXLdHgKEqC8p22ND7-1" target="ouDlS38kTs7-IsqNBu8T-4">
          <mxGeometry relative="1" as="geometry" />
        </mxCell>
        <mxCell id="G5skXLdHgKEqC8p22ND7-1" value="for i in range(4)" style="rounded=0;whiteSpace=wrap;html=1;" vertex="1" parent="WIyWlLk6GJQsqaUBKTNV-1">
          <mxGeometry x="354" y="525" width="120" height="60" as="geometry" />
        </mxCell>
        <mxCell id="G5skXLdHgKEqC8p22ND7-6" style="edgeStyle=orthogonalEdgeStyle;rounded=0;orthogonalLoop=1;jettySize=auto;html=1;exitX=0.5;exitY=1;exitDx=0;exitDy=0;entryX=0.5;entryY=0;entryDx=0;entryDy=0;" edge="1" parent="WIyWlLk6GJQsqaUBKTNV-1" source="G5skXLdHgKEqC8p22ND7-4" target="G5skXLdHgKEqC8p22ND7-1">
          <mxGeometry relative="1" as="geometry" />
        </mxCell>
        <mxCell id="G5skXLdHgKEqC8p22ND7-4" value="returned = []" style="rounded=0;whiteSpace=wrap;html=1;" vertex="1" parent="WIyWlLk6GJQsqaUBKTNV-1">
          <mxGeometry x="354" y="430" width="120" height="60" as="geometry" />
        </mxCell>
        <mxCell id="G5skXLdHgKEqC8p22ND7-36" style="edgeStyle=orthogonalEdgeStyle;rounded=0;orthogonalLoop=1;jettySize=auto;html=1;exitX=0.5;exitY=1;exitDx=0;exitDy=0;" edge="1" parent="WIyWlLk6GJQsqaUBKTNV-1" source="G5skXLdHgKEqC8p22ND7-8">
          <mxGeometry relative="1" as="geometry">
            <mxPoint x="120" y="1030" as="targetPoint" />
            <Array as="points">
              <mxPoint x="334" y="975" />
              <mxPoint x="170" y="975" />
              <mxPoint x="170" y="1030" />
            </Array>
          </mxGeometry>
        </mxCell>
        <mxCell id="G5skXLdHgKEqC8p22ND7-8" value="returned.append(&#39;partial&#39;)" style="rounded=0;whiteSpace=wrap;html=1;" vertex="1" parent="WIyWlLk6GJQsqaUBKTNV-1">
          <mxGeometry x="254" y="860" width="160" height="60" as="geometry" />
        </mxCell>
        <mxCell id="G5skXLdHgKEqC8p22ND7-37" style="edgeStyle=orthogonalEdgeStyle;rounded=0;orthogonalLoop=1;jettySize=auto;html=1;exitX=0.5;exitY=1;exitDx=0;exitDy=0;" edge="1" parent="WIyWlLk6GJQsqaUBKTNV-1" source="G5skXLdHgKEqC8p22ND7-10">
          <mxGeometry relative="1" as="geometry">
            <mxPoint x="120" y="1050" as="targetPoint" />
            <mxPoint x="585" y="820" as="sourcePoint" />
            <Array as="points">
              <mxPoint x="615" y="890" />
              <mxPoint x="431" y="890" />
              <mxPoint x="431" y="1050" />
            </Array>
          </mxGeometry>
        </mxCell>
        <mxCell id="G5skXLdHgKEqC8p22ND7-10" value="returned.append(&#39;correct&#39;)" style="rounded=0;whiteSpace=wrap;html=1;" vertex="1" parent="WIyWlLk6GJQsqaUBKTNV-1">
          <mxGeometry x="540" y="740" width="150" height="60" as="geometry" />
        </mxCell>
        <mxCell id="G5skXLdHgKEqC8p22ND7-35" style="edgeStyle=orthogonalEdgeStyle;rounded=0;orthogonalLoop=1;jettySize=auto;html=1;exitX=0.5;exitY=1;exitDx=0;exitDy=0;entryX=0.5;entryY=0;entryDx=0;entryDy=0;" edge="1" parent="WIyWlLk6GJQsqaUBKTNV-1" source="G5skXLdHgKEqC8p22ND7-12" target="G5skXLdHgKEqC8p22ND7-31">
          <mxGeometry relative="1" as="geometry" />
        </mxCell>
        <mxCell id="G5skXLdHgKEqC8p22ND7-12" value="returned.append(&#39;incorrect&#39;)" style="rounded=0;whiteSpace=wrap;html=1;" vertex="1" parent="WIyWlLk6GJQsqaUBKTNV-1">
          <mxGeometry x="30" y="860" width="160" height="60" as="geometry" />
        </mxCell>
        <mxCell id="G5skXLdHgKEqC8p22ND7-13" style="edgeStyle=orthogonalEdgeStyle;rounded=0;orthogonalLoop=1;jettySize=auto;html=1;exitX=0;exitY=1;exitDx=0;exitDy=0;entryX=0.467;entryY=0.043;entryDx=0;entryDy=0;entryPerimeter=0;" edge="1" parent="WIyWlLk6GJQsqaUBKTNV-1" source="ouDlS38kTs7-IsqNBu8T-13" target="G5skXLdHgKEqC8p22ND7-12">
          <mxGeometry relative="1" as="geometry">
            <Array as="points">
              <mxPoint x="210" y="830" />
              <mxPoint x="105" y="830" />
            </Array>
          </mxGeometry>
        </mxCell>
        <mxCell id="G5skXLdHgKEqC8p22ND7-21" value="" style="curved=1;endArrow=classic;html=1;rounded=0;exitX=1;exitY=1;exitDx=0;exitDy=0;" edge="1" parent="WIyWlLk6GJQsqaUBKTNV-1">
          <mxGeometry width="50" height="50" relative="1" as="geometry">
            <mxPoint x="224.5" y="1160" as="sourcePoint" />
            <mxPoint x="790" y="510" as="targetPoint" />
            <Array as="points">
              <mxPoint x="570" y="1150" />
              <mxPoint x="510" y="940" />
              <mxPoint x="700" y="860" />
              <mxPoint x="780" y="730" />
            </Array>
          </mxGeometry>
        </mxCell>
        <mxCell id="G5skXLdHgKEqC8p22ND7-23" value="" style="curved=1;endArrow=classic;html=1;rounded=0;exitX=1;exitY=1;exitDx=0;exitDy=0;" edge="1" parent="WIyWlLk6GJQsqaUBKTNV-1">
          <mxGeometry width="50" height="50" relative="1" as="geometry">
            <mxPoint x="224.5" y="1160" as="sourcePoint" />
            <mxPoint x="790" y="510" as="targetPoint" />
            <Array as="points">
              <mxPoint x="640" y="1160" />
              <mxPoint x="560" y="1030" />
              <mxPoint x="590" y="940" />
              <mxPoint x="640" y="930" />
              <mxPoint x="740" y="950" />
              <mxPoint x="890" y="770" />
            </Array>
          </mxGeometry>
        </mxCell>
        <mxCell id="G5skXLdHgKEqC8p22ND7-25" value="" style="curved=1;endArrow=classic;html=1;rounded=0;exitX=1;exitY=1;exitDx=0;exitDy=0;" edge="1" parent="WIyWlLk6GJQsqaUBKTNV-1">
          <mxGeometry width="50" height="50" relative="1" as="geometry">
            <mxPoint x="224.5" y="1160" as="sourcePoint" />
            <mxPoint x="790" y="510" as="targetPoint" />
            <Array as="points">
              <mxPoint x="710" y="1220" />
              <mxPoint x="630" y="1090" />
              <mxPoint x="660" y="1000" />
              <mxPoint x="760" y="1020" />
              <mxPoint x="780" y="950" />
              <mxPoint x="840" y="930" />
              <mxPoint x="890" y="820" />
              <mxPoint x="890" y="620" />
            </Array>
          </mxGeometry>
        </mxCell>
        <mxCell id="G5skXLdHgKEqC8p22ND7-32" value="False" style="edgeStyle=orthogonalEdgeStyle;rounded=0;orthogonalLoop=1;jettySize=auto;html=1;exitX=1;exitY=1;exitDx=0;exitDy=0;" edge="1" parent="WIyWlLk6GJQsqaUBKTNV-1" source="G5skXLdHgKEqC8p22ND7-31">
          <mxGeometry relative="1" as="geometry">
            <mxPoint x="230" y="1160" as="targetPoint" />
          </mxGeometry>
        </mxCell>
        <mxCell id="G5skXLdHgKEqC8p22ND7-38" style="edgeStyle=orthogonalEdgeStyle;rounded=0;orthogonalLoop=1;jettySize=auto;html=1;exitX=0;exitY=1;exitDx=0;exitDy=0;" edge="1" parent="WIyWlLk6GJQsqaUBKTNV-1" source="G5skXLdHgKEqC8p22ND7-31">
          <mxGeometry relative="1" as="geometry">
            <mxPoint x="60" y="1240" as="targetPoint" />
          </mxGeometry>
        </mxCell>
        <mxCell id="G5skXLdHgKEqC8p22ND7-31" value="if i == 3" style="rhombus;whiteSpace=wrap;html=1;" vertex="1" parent="WIyWlLk6GJQsqaUBKTNV-1">
          <mxGeometry x="80" y="1100" width="80" height="80" as="geometry" />
        </mxCell>
        <mxCell id="G5skXLdHgKEqC8p22ND7-43" style="edgeStyle=orthogonalEdgeStyle;rounded=0;orthogonalLoop=1;jettySize=auto;html=1;exitX=0.5;exitY=0;exitDx=0;exitDy=0;entryX=0.5;entryY=0;entryDx=0;entryDy=0;" edge="1" parent="WIyWlLk6GJQsqaUBKTNV-1" source="G5skXLdHgKEqC8p22ND7-39" target="G5skXLdHgKEqC8p22ND7-42">
          <mxGeometry relative="1" as="geometry" />
        </mxCell>
        <mxCell id="G5skXLdHgKEqC8p22ND7-39" value="print(returned)" style="rounded=0;whiteSpace=wrap;html=1;direction=west;" vertex="1" parent="WIyWlLk6GJQsqaUBKTNV-1">
          <mxGeometry y="1240" width="120" height="60" as="geometry" />
        </mxCell>
        <mxCell id="G5skXLdHgKEqC8p22ND7-40" value="" style="rounded=1;whiteSpace=wrap;html=1;" vertex="1" parent="WIyWlLk6GJQsqaUBKTNV-1">
          <mxGeometry x="-480" y="420" width="120" as="geometry" />
        </mxCell>
        <mxCell id="G5skXLdHgKEqC8p22ND7-44" style="edgeStyle=orthogonalEdgeStyle;rounded=0;orthogonalLoop=1;jettySize=auto;html=1;exitX=1;exitY=1;exitDx=0;exitDy=0;" edge="1" parent="WIyWlLk6GJQsqaUBKTNV-1" source="G5skXLdHgKEqC8p22ND7-42" target="G5skXLdHgKEqC8p22ND7-45">
          <mxGeometry relative="1" as="geometry">
            <mxPoint x="200" y="1409.820512820513" as="targetPoint" />
          </mxGeometry>
        </mxCell>
        <mxCell id="G5skXLdHgKEqC8p22ND7-46" value="True" style="edgeLabel;html=1;align=center;verticalAlign=middle;resizable=0;points=[];" vertex="1" connectable="0" parent="G5skXLdHgKEqC8p22ND7-44">
          <mxGeometry x="0.689" relative="1" as="geometry">
            <mxPoint x="-9" as="offset" />
          </mxGeometry>
        </mxCell>
        <mxCell id="G5skXLdHgKEqC8p22ND7-42" value="if guess == colours" style="rhombus;whiteSpace=wrap;html=1;" vertex="1" parent="WIyWlLk6GJQsqaUBKTNV-1">
          <mxGeometry x="-20" y="1350" width="160" height="80" as="geometry" />
        </mxCell>
        <mxCell id="G5skXLdHgKEqC8p22ND7-45" value="print(&#39;you win&#39;)" style="rounded=0;whiteSpace=wrap;html=1;" vertex="1" parent="WIyWlLk6GJQsqaUBKTNV-1">
          <mxGeometry x="190" y="1379.820512820513" width="120" height="60" as="geometry" />
        </mxCell>
        <mxCell id="G5skXLdHgKEqC8p22ND7-48" value="" style="curved=1;endArrow=classic;html=1;rounded=0;exitX=0.275;exitY=0.794;exitDx=0;exitDy=0;exitPerimeter=0;entryX=0.494;entryY=-0.067;entryDx=0;entryDy=0;entryPerimeter=0;" edge="1" parent="WIyWlLk6GJQsqaUBKTNV-1" source="G5skXLdHgKEqC8p22ND7-42" target="YowzJjaFA8yFRqKVJ1UK-27">
          <mxGeometry width="50" height="50" relative="1" as="geometry">
            <mxPoint x="50" y="1510" as="sourcePoint" />
            <mxPoint x="410" y="330" as="targetPoint" />
            <Array as="points">
              <mxPoint x="30" y="1500" />
              <mxPoint x="790" y="1460" />
              <mxPoint x="980" y="900" />
              <mxPoint x="1250" y="270" />
            </Array>
          </mxGeometry>
        </mxCell>
        <mxCell id="G5skXLdHgKEqC8p22ND7-49" value="False" style="edgeLabel;html=1;align=center;verticalAlign=middle;resizable=0;points=[];" vertex="1" connectable="0" parent="G5skXLdHgKEqC8p22ND7-48">
          <mxGeometry x="-0.9785" y="13" relative="1" as="geometry">
            <mxPoint as="offset" />
          </mxGeometry>
        </mxCell>
      </root>
    </mxGraphModel>
  </diagram>
</mxfile>
